<svg xmlns="http://www.w3.org/2000/svg" width="20" height="20" fill="none" viewBox="0 0 20 20"><g clip-path="url(#clip0)"><path stroke="url(#paint0_linear)" stroke-linecap="round" stroke-linejoin="round" stroke-width="2" d="M14.1668 17.5V15.8333C14.1668 14.9493 13.8156 14.1014 13.1905 13.4763C12.5654 12.8512 11.7176 12.5 10.8335 12.5H4.16683C3.28277 12.5 2.43493 12.8512 1.80981 13.4763C1.18469 14.1014 0.833496 14.9493 0.833496 15.8333V17.5"/><path stroke="url(#paint1_linear)" stroke-linecap="round" stroke-linejoin="round" stroke-width="2" d="M7.50008 9.16667C9.34103 9.16667 10.8334 7.67428 10.8334 5.83333C10.8334 3.99238 9.34103 2.5 7.50008 2.5C5.65913 2.5 4.16675 3.99238 4.16675 5.83333C4.16675 7.67428 5.65913 9.16667 7.50008 9.16667Z"/><path stroke="url(#paint2_linear)" stroke-linecap="round" stroke-linejoin="round" stroke-width="2" d="M19.1667 17.5V15.8333C19.1662 15.0948 18.9204 14.3773 18.4679 13.7936C18.0154 13.2099 17.3819 12.793 16.6667 12.6083"/><path stroke="url(#paint3_linear)" stroke-linecap="round" stroke-linejoin="round" stroke-width="2" d="M13.3335 2.60833C14.0505 2.79192 14.686 3.20892 15.1399 3.79359C15.5937 4.37827 15.84 5.09736 15.84 5.8375C15.84 6.57764 15.5937 7.29673 15.1399 7.88141C14.686 8.46608 14.0505 8.88308 13.3335 9.06667"/></g><defs><linearGradient id="paint0_linear" x1="16.792" x2="15.289" y1="4.936" y2="18.948" gradientUnits="userSpaceOnUse"><stop stop-color="#5498FF"/><stop offset=".516" stop-color="#428EFF"/><stop offset="1" stop-color="#297FFF"/></linearGradient><linearGradient id="paint1_linear" x1="12.146" x2="7.15" y1="-7.585" y2="9.882" gradientUnits="userSpaceOnUse"><stop stop-color="#5498FF"/><stop offset=".516" stop-color="#428EFF"/><stop offset="1" stop-color="#297FFF"/></linearGradient><linearGradient id="paint2_linear" x1="19.659" x2="13.75" y1="5.208" y2="15.767" gradientUnits="userSpaceOnUse"><stop stop-color="#5498FF"/><stop offset=".516" stop-color="#428EFF"/><stop offset="1" stop-color="#297FFF"/></linearGradient><linearGradient id="paint3_linear" x1="16.334" x2="7.591" y1="-7.162" y2="4.701" gradientUnits="userSpaceOnUse"><stop stop-color="#5498FF"/><stop offset=".516" stop-color="#428EFF"/><stop offset="1" stop-color="#297FFF"/></linearGradient><clipPath id="clip0"><rect width="20" height="20" fill="#fff" transform="translate(0.00012207)"/></clipPath></defs></svg>